<svg id="svg" xmlns="http://www.w3.org/2000/svg" xmlns:xlink="http://www.w3.org/1999/xlink" width="25" height="25" viewBox="0 0 25"><g id="svgg"><path id="path0" d="M1.238 2.883c-0.447 0.089 -0.888 0.437 -1.1 0.868L0.024 3.979v17.041l0.113 0.229c0.151 0.307 0.446 0.593 0.782 0.758l0.277 0.136 11.108 0.014c11.548 0.015 11.47 0.016 11.867 -0.186 0.245 -0.125 0.558 -0.452 0.691 -0.722l0.113 -0.229V3.979l-0.113 -0.229c-0.153 -0.31 -0.466 -0.614 -0.79 -0.767l-0.269 -0.127 -11.182 -0.007c-6.15 -0.004 -11.273 0.011 -11.385 0.033m5.928 4.619c2.786 2.031 5.127 3.714 5.2 3.74 0.228 0.08 0.261 0.057 5.47 -3.74l5.066 -3.693 0.354 0c0.663 0 0.817 0.207 0.817 1.093v0.565l-0.354 0.264c-0.195 0.145 -2.798 2.045 -5.786 4.221l-5.432 3.957 -5.774 -4.209 -5.774 -4.209 -0.014 -0.575c-0.021 -0.889 0.137 -1.106 0.807 -1.108l0.354 -0.001zm14.048 -3.652c-0.025 0.023 -1.996 1.461 -4.38 3.197l-4.333 3.155 -4.358 -3.177C5.745 5.278 3.775 3.839 3.764 3.828s3.921 -0.02 8.738 -0.02 8.737 0.019 8.712 0.041m-19.297 3.534 0.867 0.63v13.177h-0.69c-0.781 0 -0.94 -0.053 -1.087 -0.362 -0.105 -0.221 -0.122 -14.171 -0.017 -14.11 0.034 0.019 0.451 0.319 0.928 0.665m22.078 13.444c-0.147 0.31 -0.306 0.363 -1.087 0.363h-0.69v-13.174l0.915 -0.668 0.916 -0.668 0.012 6.991c0.011 6.341 0.005 7.006 -0.066 7.156M8.293 12.033c4.13 3.009 4.088 2.981 4.293 2.936 0.108 -0.024 2.672 -1.872 8.374 -6.037l0.33 -0.241v12.501H3.711V8.688l0.354 0.261c0.195 0.143 2.097 1.531 4.228 3.084" stroke="none" fill="#fff" fill-rule="evenodd" stroke-width="0.0625"/></g></svg>